# xmcd CD database file
#
# Track frame offsets:
#	150
#	8604
#	28746
#	45101
#	55886
#	66254
#	75927
#	90234
#	100139
#	112409
#	123770
#	133169
#	145763
#	157547
#	169379
#	183963
#	207205
#	222570
#	233913
#	244145
#
# Disc length: 3412 seconds
#
# Revision: 0
# Processed by: cddbd v1.5.2PL0 Copyright (c) Steve Scherf et al.
# Submitted via: jetAudio 7
#
DISCID=040d5214
DTITLE=Various Artist - 100 Golden Country Hits CD4
DYEAR=1900
DGENRE=Country
TTITLE0=Lorne Greene - Bonanza
TTITLE1=Emmylou Harris - Love Hurts
TTITLE2=Rex Allen - Memory Train
TTITLE3=Sammi Smith - The Letter
TTITLE4=Ferlin Husky - Wings Of A Dove
TTITLE5=Billy Swan - I Can Help
TTITLE6=Emmylou Harris - High Powered Love
TTITLE7=Willie Nelson - Healing Hands Of Time
TTITLE8=Merle Haggard - If We Make It Through December
TTITLE9=James Darren - Help Me Make It Through The Night
TTITLE10=Mickey Gilley - Lotta Lovin'
TTITLE11=Billie Jo Spears - '57 Chevrolet
TTITLE12="Tennessee" Ernie Ford - Sixteen Tons
TTITLE13=Donna Fargo - Funny Face
TTITLE14=Robert Mitchum - O-He, O-Hi, O-Ho
TTITLE15=Olivia Newton-John - If You Could Read My Mind
TTITLE16=Boxcar Willie - Forty-Nine Nights
TTITLE17=Hank Snow - The Hobo's Last Ride
TTITLE18=Dave Dudley - Seven Lonely Days
TTITLE19=Johnny Cash and June Carter - Jackson (live)
EXTD=
EXTT0=
EXTT1=
EXTT2=
EXTT3=
EXTT4=
EXTT5=
EXTT6=
EXTT7=
EXTT8=
EXTT9=
EXTT10=
EXTT11=
EXTT12=
EXTT13=
EXTT14=
EXTT15=
EXTT16=
EXTT17=
EXTT18=
EXTT19=
PLAYORDER=
